<?xml version="1.0" encoding="UTF-8"?>
<svg xmlns="http://www.w3.org/2000/svg" viewBox="0 0 434.54 308.61">
  <defs>
    <style>
      .cls-1 {
        fill: none;
      }

      .cls-1, .cls-2, .cls-3, .cls-4, .cls-5, .cls-6 {
        stroke: #231f20;
        stroke-miterlimit: 10;
      }

      .cls-2 {
        fill: #fff;
      }

      .cls-3, .cls-7 {
        fill: #231f20;
      }

      .cls-4 {
        fill: #a7a9ac;
      }

      .cls-5 {
        fill: #f15a29;
      }

      .cls-6 {
        fill: #6d6e71;
      }
    </style>
  </defs>
  <g id="Layer_2" data-name="Layer 2">
    <path class="cls-6" d="M173.52,281.46c-7.58,8.36-21.8,19.45-48.81,23.73-19.43,3.08-60.46,9.64-92.68-18.66C7.4,264.89,.88,234.67,.52,219.61c-.29-12.26,2.48-23.04,2.48-23.04,2.32-9.02,5.16-13.44,8.74-21.81,0,0,5.94-13.89,9.56-32.04,4.76-23.86,1.81-45.16,.18-56.24-2.31-15.76-5.28-22.25-2.95-34.86,.78-4.21,2.6-14.06,9.23-22.67C44.1,7.77,76.88,10.7,81.63,11.1c34.98,2.94,54.08,31.41,58.07,37.35,11.75,17.5,14.16,35.66,15.33,44.45,1.26,9.46-.05,8.53,.15,36.21,.27,36.65,2.62,45.01,5.17,51.37,5.2,12.95,12.94,21.92,14.89,24.11,14.68,16.53,29.99,19.99,29.06,27.2-.54,4.2-6.16,6.56-14.81,10.06-14.81,6-20.88,4.19-39.69,8.29-16.91,3.68-18.43,6.54-31.68,7.51-8.6,.63-16.41,1.11-24.63-2.83-10.97-5.27-13.69-14.11-16.95-12.86-3.95,1.5-4.83,16.25,2.46,26.32,6.35,8.77,16.57,10.56,18.14,10.81,8.45,1.38,11.64-2.16,27.18-4.9,8.42-1.49,7.92-.52,19.09-1.92,24.32-3.04,35.14-8.66,37.47-5.08,2.33,3.57-6.07,12.84-7.37,14.26Z"/>
    <path class="cls-3" d="M179.93,266.39c.81-3.35-18.66-15.44-39.04-13.44-7.53,.74-7.61,2.66-19.05,4.08-10.39,1.29-18.77,2.33-27.19-1.21-11.92-5-14.54-15.21-18.1-13.85-4.07,1.55-4.76,16.48,2.46,26.32,4.71,6.41,11.4,8.77,13.15,9.36,5.95,2.01,11.1,1.43,14.94,.96,5.53-.68,7.91-2.04,12.79-3.53,8.82-2.7,9.21-.77,27.24-3.17,10.69-1.42,9.56-1.97,21.29-3.48,9.27-1.19,11.28-1.02,11.52-2.03Z"/>
  </g>
  <g id="Layer_4" data-name="Layer 4">
    <path class="cls-2" d="M82.72,233.72c2.53,4.37,5.91,11.3,7.69,20.34,1.61,8.19,1.21,14.63,3.47,15.16,2.36,.55,4.21-6.11,10.21-11.25,6.25-5.34,14.01-6.47,19.4-6.63"/>
    <path class="cls-2" d="M114.31,265.13c5.45-.85,10.89-1.7,16.34-2.55"/>
    <path class="cls-2" d="M111.76,267.69c4.68-.44,11.38-1.2,19.4-2.55,5.25-.88,10.58-1.78,15.32-3.06,15.03-4.07,30.05-13.61,29.11-16.34-.85-2.47-15.4-.97-66.39,12.52"/>
    <path class="cls-7" d="M125.7,267.17c-1.26-5.7-2.79-11.33-4.59-16.89-.42-1.28-1.73-2.12-3.08-1.75-1.26,.35-2.16,1.79-1.75,3.08,1.8,5.55,3.34,11.19,4.59,16.89,.29,1.32,1.82,2.09,3.08,1.75,1.36-.37,2.04-1.75,1.75-3.08h0Z"/>
    <path class="cls-7" d="M142.26,266.51c-2.4-5.9-3.93-12.13-4.41-18.48-.1-1.35-1.08-2.5-2.5-2.5-1.27,0-2.6,1.15-2.5,2.5,.51,6.8,2.02,13.48,4.59,19.81,.51,1.25,1.66,2.13,3.08,1.75,1.18-.33,2.26-1.82,1.75-3.08h0Z"/>
  </g>
  <g id="Layer_1" data-name="Layer 1">
    <g id="Layer_3" data-name="Layer 3">
      <path class="cls-4" d="M204.31,231.81c-.12,.93-.76,3.98-9.13,8.3-5.61,2.9-10.7,4.31-16.4,5.53-8.96,1.92-10.49,1.46-20.09,3.23-3.22,.59-2.95,.6-17.8,4.07-14.58,3.4-17.18,4.19-22.76,4.72-6.93,.65-12.59,1.19-19.51-.81-.09-.03-.18-.05-.29-.08,0,0-4.55-1.33-7.92-2.71-3.63-1.48-13.96-8.92-12.71-15.08,1.11-5.47,10.61-6.13,10.44-10.36-.06-1.58-2.2-3.08-6.31-6.28-3.92-3.05-7.38-4.75-8.77-5.4-5.06-2.37-8.63-2.75-10.34-3.47-11.94-5.03-16.76-28.05-13.69-46.06,1.45-8.48,3.98-23.32,14.63-28.46,10.75-5.18,17.86,5.27,39.26,1.94,6.17-.96,13.39-2.08,21.14-6.89,9.08-5.64,10.98-11.44,16.83-11.3,8.4,.19,14.04,12.36,14.29,12.91,4.19,9.32,.59,15.43,.62,26.07,0,1.6,1.26,23.76,15.98,39.22,7.22,7.58,11.88,12.47,19.13,15.81,1.52,.7,6.36,2.81,10.21,7.66,1.55,1.95,3.56,4.49,3.18,7.42Z"/>
    </g>
    <path class="cls-2" d="M404.34,226.43c36.03-44.99,44.39-128.34-3.86-181.81-51.15-56.68-146.39-58.14-200.39-7.92-49.28,45.83-58.18,129.1-28.3,164.21,13.43,15.78,33.95,20.94,32.52,30.89-2.42,16.87-63.44,16.48-63.41,21.14,.05,8.24,191.08,63.85,263.45-26.52Z"/>
    <path class="cls-1" d="M55.53,12.95c12.32-2.63,31-4.24,49.59,4.07,35.2,15.73,56.3,60.86,50.06,112.1"/>
    <path class="cls-5" d="M352.28,199.04c-1.49-5.14-5.63-11.77-11.96-13.88-14.04-4.67-23.65,17.98-42.6,20.2-20.88,2.45-50.99-20.14-54.39-51.85-3.45-32.16,21.9-61.37,42.01-62.13,17.48-.67,27.68,20.28,48.23,15.79,1.99-.43,10.87-2.37,14.7-9.49,6.13-11.4-5.42-27.29-6.67-28.96-13.68-18.33-43.26-23.44-64.9-18.78-40.76,8.79-74.78,56.89-69.96,105.2,3.99,40,34.19,76.09,70.82,84.54,24.87,5.73,58.18-.02,69.96-18.52,1.84-2.89,7.67-12.05,4.75-22.12Z"/>
    <path class="cls-1" d="M108.37,211.12c7.08,9.17,10.85,10.47,13.01,9.76,3.88-1.29,2.8-9.22,7.3-10.95,3.54-1.36,6.48,2.66,13.84,6.07,2.52,1.17,16.15,7.51,22.76,2.51,4.97-3.76,5.48-13.55,1.75-23.65"/>
    <path class="cls-1" d="M51.54,275.48c-15.96-13.47-20.08-33.33-13.9-44.65,1.88-3.45,8.41-12.86,19.35-16.21,.04-.01,.1-.03,.16-.05,5.89-1.76,15.03-.53,29.27,11.38"/>
    <path class="cls-1" d="M49.02,167.42c1.9-13.44,6.05-24.95,14.63-28.46,5.59-2.28,8.45,.7,21.95,1.63,10.6,.73,22.83,1.57,34.15-4.07,11.72-5.84,13.77-14.3,21.14-13.82,6.55,.42,11.39,7.51,14.29,12.91"/>
    <path class="cls-3" d="M86.22,175.01c3.74-6.64,7.48-13.28,11.22-19.92,3.01,5.1,8.45,9.93,8.45,16.6,0,15.5-3.57,26.63-14.4,26.63s-24.59-4.82-24.59-20.33,4.63-32.94,15.46-32.94c3.06,0,6.08,1.02,8.82,2.98-1.65,8.99-3.31,17.98-4.96,26.98Z"/>
    <path class="cls-3" d="M136.96,164.12l11.1-18.39c2.21,5.14,3.34,14.96,3.34,21.69,0,15.64-9.48,21.14-17.45,21.14s-17.45-14.45-17.45-30.08,12.49-22.86,20.46-22.86c2.25,0,1.92-.9,3.93,1.08l-3.93,27.43Z"/>
    <path class="cls-1" d="M43.33,114.58c17.79,16.04,28.63,14.54,36.59,13.2,12.5-2.11,18.94-8.92,36.59-14.82,11.54-3.86,21.91-3.79,28.46-3.25"/>
    <path class="cls-1" d="M56.34,104.01c15.21,6.37,26.97,6.65,34.96,5.69,6.62-.79,11.09-8.55,25.2-12.2,11.34-2.93,19.92,1.23,26.02,0"/>
  </g>
</svg>